<?xml version="1.0" encoding="utf-8"?>
<svg version="1.1" id="Layer_1" xmlns="http://www.w3.org/2000/svg" xmlns:xlink="http://www.w3.org/1999/xlink" x="0px" y="0px"
	 viewBox="0 0 1849.036 3039.263" enable-background="new 0 0 1849.036 3039.263" xml:space="preserve">
<path d="M1814.866,432.766c-3.165-30.894-0.634-36.212-1.535-48.021c-0.61-12.979-5.334-25.339-5.914-38.318
	c-0.021-6.956-11.149-28.505-13.137-38.869c-1.506-6.741-4.389-13.029-7.528-19.13c-1.388-1.988-3.11-3.818-3.592-6.259
	c-0.748-3.385-3.956-5.432-5.068-8.64c-4.115-11.677-15.874-25.899-21.786-31.381c-3.562-2.932-4.94-7.479-7.685-11.041
	c-4.153-6.814-19.211-23.399-24.807-28.36c-2.135-1.958-5.078-2.657-7.243-4.566c-9.218-8.524-10.326-12.916-14.908-13.619
	c-2.744-6.371-24.745-18.048-28.704-21.54c-18.959-15.883-16.692-10.399-32.208-21.836c-1.811-1.466-4.231-1.584-6.219-2.667
	c-5.284-2.332-9.024-7.301-14.613-9.014c-6.987-2.46-12.34-8.168-19.533-10.086c-3.513-1.702-6.632-4.32-10.529-5.078
	c-3.798-0.669-7.006-2.942-10.578-4.222c-3.513-1.525-7.351-2.165-10.608-4.231c-2.637-1.712-5.865-1.289-8.787-1.899
	c-3.031-1.348-5.776-3.483-9.181-3.69c-3.06-0.285-4.91-3.483-8.02-3.592c-4.881-0.334-9.073-3.218-13.845-3.985
	c-4.182-0.561-8.02-2.45-11.976-3.788c-2.194-0.482-4.576-0.128-6.544-1.338c-2.194-1.26-4.91-0.64-7.085-1.87
	c-2.913-1.939-6.721-0.157-9.594-2.106c-2.785-1.84-6.377-0.059-9.201-1.574c-3.12-2.293-7.302-0.492-10.549-2.45
	c-3.434-1.732-7.577,0.148-10.943-1.742c-2.932-1.752-6.623-0.423-9.555-2.185c-2.844-1.565-6.376-0.01-9.092-1.801
	c-2.903-2.047-6.849,0.059-9.722-2.047c-3.031-1.948-6.967,0.059-10.008-1.86c-2.352-1.506-5.206-0.866-7.803-1.092
	c-2.165,0.059-3.769-1.85-5.894-1.85c-2.667-0.266-5.55,0.433-7.961-0.974c-3.001-1.968-6.859-0.167-9.909-1.919
	c-2.46-1.653-5.589-0.591-8.187-1.673c-4.271-2.362-9.398-1.564-14.072-1.407c-2.096-2.342-5.294-1.87-8.099-2.047
	c-3.051-0.089-5.698-2.076-8.778-1.89c-3.67-0.256-7.557,0.718-11.011-0.866c-4.192-2.135-9.004-0.384-13.393-1.427
	c-6.177-2.029-0.206-1.684-22.672-1.604c0.157-0.502,0.492-1.496,0.659-1.988c-5.944-0.59-12.251,1.132-17.772-1.722
	c-5.51-0.797-11.238,0.472-16.64-1.22c-4.271-1.427-8.827-0.748-13.206-1.506c-2.844-0.64-5.875,1.387-8.492-0.394
	c-1.865-1.246-17.643-1.065-18.628-1.073c-2.263,0.266-3.621-2.244-5.865-1.978c-3.966-0.118-7.922,0.118-11.868,0.03
	c-4.96-0.059-9.693-1.958-14.652-1.988c-8.955-0.236-18.097,0.846-26.825-1.663c-10.401-0.777-20.872-0.02-31.292-0.345
	c-2.126-0.069-3.789-1.761-5.894-1.879c-7.262-0.433-14.633,0.718-21.806-0.846c-4.074-0.954-8.099,1.634-12.113,0.276
	c-8.433-2.371-17.24-0.915-25.811-1.663c-7.213-3.907-15.784-0.216-23.41-2.332c-6.377-2.765-13.442-0.62-20.094-1.565
	c-9.335-2.172,3.138-1.331-30.603-1.801c-2.499,0.099-4.379-2.057-6.859-1.958c-4.487-0.305-9.043,0.531-13.462-0.325
	c-4.969-2.775-10.755-1.289-16.148-1.624c-3.385,0.138-6.347-1.958-9.703-1.978c-7.272-0.118-14.544,0.089-21.806-0.01
	c-2.775,0.148-4.96-2.106-7.725-1.968c-108.587-2.567-111.334-2.007-111.334-2.007c-3.454-0.462-6.278,2.155-9.673,2.017
	c-10.224,0.039-20.448-0.079-30.672,0c-3.375,0-6.396,1.86-9.752,1.879c-2.303,0.089-4.635,0.187-6.721,1.22
	c-2.913,1.328-6.298,0.315-9.181,1.692c-4.978,2.469-18.057,0.188-25.162,1.417c-2.745,1.407-5.776,1.633-8.768,1.958
	c-2.809,1.873-31.356,7.24-35.475,8.797c-3.277,1.22-6.819,0.561-10.214,0.748c-10.628,2.401-21.049,6.042-31.725,8.512
	c-4.192,2.568-8.935,3.68-13.56,5.087c-6.367,0-12.005,3.395-18.156,4.595c-11.045,5.403-32.768,12.478-32.768,12.478
	c-0.992,0.509-18.78,3.384-25.792,7.626c-3.474,1.939-7.646,2.441-10.815,4.93c-2.736,2.303-6.406,2.755-9.575,4.222
	c-10.204,4.418-19.937,9.929-29.167,16.099c-3.169,1.673-6.77,2.293-10.037,3.739c-30.16,14.987-22.251,14.8-31.834,21.344
	c-1.968,1.013-1.24,3.719-2.736,5.137c-4.389,4.792-9.279,9.23-12.684,14.839c-0.984,1.24-1.673,3.218-3.493,3.366
	c-4.153,0.118-6.957,3.474-10.116,5.707c-8.965,8.069-20.743,13.471-26.982,24.227c-1.387,1.879-3.513,3.277-4.123,5.658
	c-0.935,2.755-3.07,4.842-4.369,7.41c-1.348,5.206-2.913,10.451-5.452,15.193c-13.649,7.843-23.971,20.114-36.439,29.551
	c-4.694,4.172-8.177,9.476-12.3,14.17c-4.51,4.781-8.748,32.609-17.004,36.252c-3.749,1.673-6.052,5.156-8.266,8.433
	c-1.437,2.263-4.025,3.434-5.629,5.491c-1.634,4.448-5.294,7.636-7.843,11.533c-6.324,6.427-15.813,28.763-16.414,29.747
	c-7.054,11.083-0.22,24.6-12.33,32.483c-0.354-0.561-1.043-1.683-1.388-2.244c-4.379,8.787-13.757,14.013-17.388,23.282
	c-1.073,3.257-3.228,5.953-5.137,8.738c-0.964,1.604-3.838,0.935-4.33,2.893c0.384,0.226,1.161,0.699,1.555,0.935
	c-3.653,8.152-18.536,28.678-19.543,49.635c-0.699,6.278-6.219,10.047-9.899,14.613c-14.88,19.597-36.408,55.077-40.749,76.361
	c-0.905,5.924-0.059,13.235-5.324,17.349c-5.002,6.976-14.82,16.107-26.225,41.753c-2.234,4.979-1.023,10.687-2.824,15.754
	c-6.991,8.19-3.809,6.833-3.001,12.32c-0.128,2.194-0.472,4.369-0.6,6.573c-0.738,0.148-2.204,0.453-2.942,0.6
	c4.015,18.166-3.587,22.29-8.217,31.706c-2.331,6.817-11.199,23.54-13.294,35.967c-0.689,6.071-5.481,10.332-8.089,15.587
	c-3.316,3.818-3.907,8.955-6.278,13.285c-5.406,12.126-4.975,26.958-10.342,35.937c-7.371,8.638-10.854,33.496-11.454,35.848
	c-0.964,3.769,2.155,7.872-0.364,11.326c-2.194,3.464-1.289,7.872-3.444,11.356c-3.218,5.796-4.468,12.379-7.164,18.411
	c-1.919,4.025-0.187,8.699-1.998,12.763c-0.984,2.371-0.964,4.979-1.388,7.489c-0.59,3.651-2.44,6.918-3.385,10.48
	c-1.23,3.434,0.709,7.242-1.141,10.569c-2.037,8.059-5.078,16.069-4.95,24.522c-0.079,3.887,0.6,8-1.24,11.622
	c-1.801,4.084-1.466,8.65-2.795,12.861c-1.948,5.599,0.049,11.651-1.466,17.329c-0.896,3.415-1.496,6.898-1.417,10.441
	c0.148,2.726-1.574,5.196-1.142,7.941c0.207,3.247,0.108,6.504,0.246,9.762c0.039,2.431,1.643,4.615,1.358,7.095
	c-0.472,7.853-2.795,15.489-3.346,23.322c0.758,3.867,1.456,7.823-0.256,11.592c-0.649,0.079-1.958,0.226-2.608,0.305
	c1.191,4.212-0.482,8.492-0.148,12.783c0.649,3.267-3.69,5.068-2.578,8.335c0.502,3.139,0.886,6.318,1.279,9.486
	c0.413,4.497-3.326,8.099-2.647,12.605c0.394,7.754-0.876,15.666,1.141,23.262c3.08,0.679,5.835,3.07,9.112,1.84
	c2.335-0.72,5.566,1.021,7.84,0.483c9.379,36.327,116.114,129.356,122.173,134.613c115.736,204.86,60.214,84.933,250.266,551.211
	l81.466,381.784l-241.949-773.031l-1.878,0.588c297.888,951.758,227.445,695.671,328.449,1169.022
	c-1.087,0.25-2.221,0.35-3.425,0.228c-1.063,2.44-1.555,5.077-1.23,7.774c2.023-0.174,4.324,0.276,6.314-0.229l5.956,27.911
	c-1.22-1.307-2.381-2.683-3.61-3.887c-12.256-1.807-12.653,7.066-19.287,6.701c-29.536,5.375-44.916,27.25-41.487,35.091
	c0.817,3.1-3.257,5.107-2.873,8.227c0.512,3.838,1.594,7.626,1.191,11.563c9.396,23.587,9.842,16.877,21.304,26.156
	c-6.219,7.065-15.558,9.476-24.365,11.464c-7.047-2.688-12.758-24.48-25.044-28.823c1.791,3.602,6.298,4.595,8.207,8.177
	c4.674,7.39,9.466,14.701,14.908,21.56c-17.587,5.217-26.711,24.229-28.055,25.329c-14.553,3.355-40.143-0.973-48.316,0.856
	c-4.31,0.679-8.512-0.984-12.517-2.322c-3.119-0.502-6.288-0.138-9.427-0.098c-2.037,2.913-4.389,5.895-4.123,9.693
	c0.177,4.408-6.15,2.795-7.587,6.278c-2.775,3.238-3.119,7.823-1.279,11.631c1.948-0.433,3.907-0.787,5.875-1.063
	c0.905,5.717,0.344,11.563,1.328,17.289c-0.502,0.138-1.506,0.394-2.007,0.521c-1.281,7.476-4.918,20.114-2.509,25.654
	c1.063,10.047,2.391,20.133,2.608,30.279c0,4.733,2.499,9.024,2.549,13.777c0.03,3.602,1.594,6.928,2.618,10.352
	c2.263,6.8,2.873,14.101,5.737,20.714c4.123,6.199,11.602,9.693,14.662,16.758c3.985,8.945,10.382,16.433,16.128,24.266
	c2.322,2.923,6.278,4.3,7.774,7.951c1.673,3.719,6.17,5.166,7.39,9.2c1.309,4.222,5.373,6.475,7.941,9.86
	c21.563,28.619,4.085,13.249,30.003,30.18c4.074,2.618,9.014,2.726,13.698,2.962c2.362,0.955,3.828,3.365,6.239,4.3
	c6.298,2.293,12.409,5.176,18.106,8.728c3.228,0.846,6.642,0.876,9.85,1.899c38.426,15.649,38.544,12.184,39.568,16.581
	c13.782-0.779,13.968,7.521,39.45,4.772c3.09-0.875,6.436-1.279,9.122-3.168c4.427-3.053,20.512-6.18,24.099-9.368
	c5.767-2.066,11.72-3.611,17.664-5.068c2.549-1.25,4.96-2.814,7.715-3.562c-0.453,1.289-0.955,2.637-1.594,3.906
	c17.063,11.249,16.256,12.337,20.015,12.084c4.389-0.453,7.262,4.408,11.622,3.897c2.559-0.925,5.215-2.106,6.947-4.271
	c1.693-3.936-1.407-8.719,1.584-12.133c5.629-12.999,8.866-26.923,12.261-40.631c-0.551-0.955-1.102-1.84-1.653-2.706
	c3.533-3.336,0.827-8.561,3.267-12.32c1.929,46.84-8.788,33.344-0.384,44.321c-1.643,0.521-3.297,1.063-4.95,1.555
	c-1.653,4.113-1.201,8.482-0.699,12.792c11.287,6.605,5.684,19.167,13.885,27.671c10.906,6.566,20.939-4.405,25.634-6.898
	c3.336-1.742,5.284-5.107,8.158-7.39c1.998-2.037,4.94-2.391,7.469-3.415c6.239-1.909,12.419,1.083,17.978,3.651
	c9.078,4.468,45.406,3.026,49.448-14.79c-5.053-13.968-14.865-8.45-24.739-12.773c-2.539-2.106-4.005-5.255-6.908-6.918
	c5.747-4.782,2.558-13.078-0.128-18.667c-11.338-3.961-9.767-1.516-15.341,0.138c-0.128-5.029-4.645-7.509-8.197-10.106
	c-2.539-0.738-3.739,1.909-4.113,3.946c-2.135,0.777-3.759-0.335-4.153-2.47c-2.764-1.59-12.069-15.131-14.052-19.415
	c-3.475-7.304,0.699-5.888,5.658-24.611c1.03-6.72,5.258-37.28,2.706-43.603c-3.323-7.477,0.998-9.603-13.137-23.381
	c-6.724-5.345-23.892-2.413-30.289-1.988c-1.065-7.862-12.244-14.698-18.057-14.8c-6.485-1.929-13.531-1.968-19.976,0.187
	c-11.833,3.245-4.587-7.609-15.754-18.392c-4.792-5.264-11.228-8.502-17.555-11.503c0.03-5.885,2.372-11.415,2.716-17.25
	c0.079-3.228,3.621-4.989,3.592-8.266c0.266-4.153,2.342-7.774,3.907-11.523c6.711,0.949,15.583,4.825,17.821-13.117
	c11.312-2.725,6.282-8.999,7.095-12.724c0.738-3.917-1.614-7.459-1.742-11.307c0.02-2.332-1.604-4.054-3.424-5.196
	c1.572-10.467-2.442-8.233-5.274-14.633c-1.24-1.909-0.955-4.29-1.348-6.386c-0.068,0.194-0.132,0.391-0.193,0.59l3.665-42.284
	c1.312-2.301-0.082-6.047,2.511-11.09c2.475-5.271,18.584-53.864,19.031-54.85c2.716-4.605,4.989-9.634,5.53-14.987
	c0.282-15.198,9.234-17.847,9.296-31.405c617.042-1300.091,419.517-901.982,878.853-1782.071c1.657-0.545,3.485-0.689,5.141-1.276
	c4.237-2.438,19.434-14.202,22.79-19.72c4.979-3.799,9.309-8.355,13.806-12.704c0.984-0.929,23.957-18.721,27.287-25.782
	c2.322-4.694,6.071-8.394,10.155-11.562c4.898-5.981,22.847-30.797,24.985-32.09c1.92-3.749,16.924-24.989,19.523-27.395
	c0.817-3.424,2.942-6.278,5.579-8.542c2.067-3.06,2.411-7.036,4.782-9.968c5.875-7.616,7.853-17.181,11.543-25.861
	c1.201-3.69,4.969-5.589,6.652-8.984c5.672-12.805,14.333-42.697,17.526-50.344c2.114-6.843,6.606-12.296,9.545-32.906
	c0.826-4.064,0.482-8.473,2.509-12.222c1.486-2.411,0.679-5.343,0.906-8.01C1811.255,458.435,1815.688,440.125,1814.866,432.766z
	 M419.884,2744.525c-0.905,1.575-2.647,0.433-3.946,0.226c1.24-2.234,2.037-5.353,4.871-5.983
	C422.581,2740.343,420.868,2742.912,419.884,2744.525z M744.046,2933.441c0.207-1.604-0.256-3.729,1.791-4.153
	c0.156,7.447-4.273,24.574-8.955,27.199C739.51,2948.89,743.554,2941.599,744.046,2933.441z M711.632,2981.865v-2.608
	c6.249-0.777,11.641-4.487,16.246-8.551c2.293-2.086,5.796-2.45,7.616-5.088c0.797-1.191,1.919-1.978,3.385-1.958
	c-0.389,8.812-9.766,27.861-13.304,30.683C719.179,2993.93,710.923,2989.295,711.632,2981.865z M709.437,2815.642
	c-4.595-0.128-9.122-0.954-13.658-1.574c0.02-8.758-2.057-17.358-5.333-25.437C707.865,2797.117,710.362,2807.249,709.437,2815.642z
	 M1575.243,782.374c-0.227-0.915-0.453-1.821-0.66-2.726c3.686-1.727,6.845-4.507,10.566-6.09l-86.995,142.547
	c14.049-31.82,2.017-7.925,68.309-132.895C1567.447,783.21,1570.275,784.019,1575.243,782.374z M1564.45,782.804l-44.382,83.667
	l37.561-85.075C1559.903,781.864,1562.175,782.341,1564.45,782.804z M1555.653,780.997
	c-74.402,168.522-49.454,121.314-228.679,417.61l85.975-189.061l0.114,0.037c0.484-1.492-6.255,13.467,106.974-235.525
	C1520.039,774.057,1555.653,780.997,1555.653,780.997z M1496.175,915.715c-7.124,16.135-3.763,9.8-14.735,27.778L1496.175,915.715z
	 M1490.872,769.949c0,0,12.669,2.518,27.107,3.88l-99.192,218.126L1490.872,769.949z M1488.854,769.79
	c-94.936,292.38-56.994,193.414-166.3,433.781c88.533-364.132,58.004-265.133,136.571-438.665
	C1469.484,767.333,1485.312,769.542,1488.854,769.79z M1377.138,945.991c1.058,8.977,1.807,14.918,2.008,16.49l-60.946,250.667
	L794.636,2401.864C1273.082,1146.266,1152.126,1442.982,1377.138,945.991z M1207.473,1315.964l158.792-488.403
	c2.399,42.016,7.397,88.544,10.43,114.638L1207.473,1315.964z M1378.732,942.471l12.404-27.397l-10.659,42.136
	C1380.057,953.764,1379.454,948.734,1378.732,942.471z M1446.058,761.956c3.647,1.076,7.389,1.717,11.105,2.51l-58.69,129.63
	l33.697-133.213C1440.154,762.127,1441.007,761.276,1446.058,761.956z M1430.242,760.476
	c-42.713,168.855-31.921,133.956-51.947,178.186c-3.152-27.688-8.094-74.947-10.282-116.482l23.195-71.341
	C1404.522,751.368,1429.258,760.221,1430.242,760.476z M1368.904,752.757c1.823-0.026,15.449-1.85,20.24-1.934l-21.406,65.838
	C1366.492,790.249,1366.475,766.69,1368.904,752.757z M1365.966,822.111c-208.845,642.356-81.642,289.123-586.952,1615.22
	l-14.877,33.777l502.765-1538.68l99.965-179.462C1364.317,768.19,1364.495,793.855,1365.966,822.111z M765.219,2473.535
	l-13.156,34.524C759.3,2485.913,756.3,2493.786,765.219,2473.535z M1341.327,674.632c1.535,2.45,1.978,5.284,1.673,8.148
	c0.915,0.522,1.86,1.043,2.824,1.564c-0.207,3.188,1.26,6.76-0.856,9.555c1.929,2.952,2.588,6.514,2.224,10.008
	c7.082,3.736,0.287,8.099,4.349,11.454c-1.112,4.139-1.511,19.552,0.708,26.185c1.132,2.647,2.726,5.166,2.755,8.158
	c3.17,1.194,6.503,2.275,9.884,2.769c-0.141,0.253-99.713,178.987-99.828,179.253
	c-548.151,1677.58-505.757,1550.352-515.494,1572.46c402.844-1432.917,278.402-1032.898,557.283-1817.798l31.328-41.401
	C1338.18,644.988,1339.952,667.405,1341.327,674.632z M1235.444,777.493l-53.616,70.854l76.341-150.369L1235.444,777.493z
	 M1237.235,778.388l65.679-86.796l-208.952,588.092L1237.235,778.388z M1182.326,850.952l51.619-68.216l-142.74,499.433
	L1182.326,850.952z M1329.97,621.322c2.059,5.261,3.68,9.581,7.472,21.377l-28.405,37.538L1329.97,621.322z M1321.824,603.841
	c0.433,2.401,2.401,4.034,3.651,6.022c1.76,2.559,2.558,5.54,3.467,8.476l-23.842,67.102l-66.366,87.704
	c29.631-103.674,12.016-60.552,77.246-189.037C1318.108,587.103,1321.59,602.85,1321.824,603.841z M1314.736,582.211l-49.039,96.593
	l36.789-128.721C1303.281,552.67,1308.976,572.905,1314.736,582.211z M1301.413,546.674
	c-49.617,173.605-22.158,105.425-120.44,299.011l107.622-325.992C1292.633,527.023,1298.833,538.658,1301.413,546.674z
	 M1269.424,485.973c3.06,7.183,8.167,13.285,10.824,20.655c1.549,3.505,2.865,3.286,7.045,10.732l-105.593,319.847l82.592-358.352
	C1266.074,481.171,1268.37,483.152,1269.424,485.973z M1262.848,476.354l-87.827,381.061l-189.657,407.643l132.48-503.42
	l138.944-295.991C1263.235,473.059,1259.817,468.763,1262.848,476.354z M721.537,2527.561c-0.205,0.304-0.411,0.604-0.616,0.91
	c-0.592-5.332,0.544-9.71,2.767-21.713l-2.35,20.781L721.537,2527.561z M718.397,2524.517l0.493,0.092
	c-0.198,0.466-0.469,0.87-0.867,1.177c40.642-566.125,22.623-425.089,77.271-652.369
	C718.116,2556.042,730.008,2461.828,718.397,2524.517z M638.538,2506.053c58.832-478.062,25.474-249.391,152.905-1030.465
	l-41.495,578.005l-109.26,454.401c-0.546,0.167-1.097,0.324-1.639,0.5c-0.059-2.047-0.079-4.064-0.049-6.062
	C638.9,2503.64,638.757,2504.854,638.538,2506.053z M636.202,2512.826c-1.767,5.201,0.01,11.063-1.463,16.431
	c-0.098,6.013-1.998,11.681-3.542,17.417c-0.63,0.158-1.88,0.482-2.509,0.64c0.01,3.247,0,6.494-0.295,9.761
	c-2.48-3.582-1.742-8.148-2.903-12.153c-1.102-3.917-0.836-7.98-0.984-11.976c-1.811-8.62,1.023-17.25,1.83-25.841
	c-1.11,0.438-1.666,1.364-2.141,2.379c-0.159-1.025-0.45-2.006-0.955-2.914l53.935-330.587l-41.446,336.784L636.202,2512.826z
	 M625.12,2591.381l-4.651,28c-0.288,0.037-0.578,0.073-0.864,0.113c0.226-2.116,0.984-4.084,1.24-6.15
	c0.157-2.784-2.47-4.822-2.194-7.587c-0.108-4.212,3.493-7.538,3.001-11.769c-0.315-6.977-0.325-14.013,0.738-20.911
	c0.394-4.94,2.785-9.525,2.332-14.554h1.761c-0.354,4.871,0.522,9.771-0.069,14.652
	C623.536,2578.828,624.453,2585.248,625.12,2591.381z M618.731,2529.423c-1.312-4.191,0.238,6.451-11.333-87.448l3.877-97.119
	l8.907,161.396c0,0,0.288,5.213,0.288,5.214l0.284-0.001C620.434,2529.163,620.909,2528.458,618.731,2529.423z M592.887,2340.306
	c14.926,121.125,12.951,91.431,10.951,141.533C601.013,2472.814,602.866,2491.651,592.887,2340.306z M603.604,2487.681l-0.377,9.445
	l-0.89-13.492L603.604,2487.681z M487.33,1220.981c52.796,216.243,31.976,33.346,99.031,1050.268
	c-99.362-806.346-85.412-703.674-92.021-729.625l0.172-0.004L487.33,1220.981z M492.37,1533.888l-86.518-339.73l0.684,1.021
	c-19.538-61.218-14.469-29.77-20.744-142.802l99.378,159.905L492.37,1533.888z M400.44,1182.553l-8.092-12.069l-0.893-16.083
	L400.44,1182.553z M388.635,1139.087c-6.347-19.888-4.078-2.655-10.261-98.647l5.254,8.453L388.635,1139.087z M390.2,1167.278
	l-4.044-6.032l-1.893-29.385C390.167,1150.362,388.812,1142.282,390.2,1167.278z M390.414,1171.131l22.601,407.073l-26.607-413.049
	L390.414,1171.131z M392.563,1174.337l10.013,14.935c118.274,464.424,75.518,219.463,186.067,1116.597l10.645,161.434
	c-30.052-96.015-1.962,24.728-180.048-812.475L392.563,1174.337z M601.945,2507.59c-0.14-0.902-0.358-1.779-0.791-2.599
	c-0.114,1.397-0.158,2.798-0.178,4.2l-19.858-93.353C603.583,2487.612,599.292,2467.366,601.945,2507.59z M530.827,1399.139
	c47.249,193.522,30.026,32.041,79.305,925.012l-4.222,105.753C585.502,2264.282,598.531,2425.907,530.827,1399.139z
	 M567.655,1541.68l0.167,0.007c22.232-492.708,8.085-336.546,62.488-696.057c34.987,173.917,33.266,139.845-19.349,1457.797
	C565.401,1477.873,570.358,1552.751,567.655,1541.68z M606.913,2454.132l7.628,61.906l-8.957-28.618L606.913,2454.132z
	 M654.91,1251.836l-2.152-267.656c29.211,492.014,32.276,188.048-31.372,1508.172
	C609.371,2274.627,605.606,2486.859,654.91,1251.836z M831.838,1118.072l-17.858,153.996l0.21-12.545
	C824.762,1142.18,820.709,1173.057,831.838,1118.072z M814.642,1232.572c0.648-38.649-0.432-27.407,4.796-53.237L814.642,1232.572z
	 M916.284,787.491c-15.905,207.461,3.522,100.608-94.075,487.319l-22.702,139.147C848.102,994.9,814.494,1173.47,916.284,787.491z
	 M851.875,1024.014c25.181-113.12,20.27-87.855,22.66-109.267l1.269,0.267l48.36-230.324
	C915.104,802.884,928.508,733.423,851.875,1024.014z M1075.322,527.136c-69.111,526.38-36.324,350.262-143.626,772.202
	C1082.077,477.688,1069.351,541.119,1075.322,527.136z M1072.911,527.768l8.234-44.991l-4.874,37.121L1072.911,527.768z
	 M810.202,1760.978c94.462-696.897,46.291-444.286,211.205-1107.587l46.398-108.654
	C958.609,1141.366,902.618,1497.607,810.202,1760.978z M805.971,1778.979c-11.184,98.925-0.019,41.698-53.21,262.914l40.657-566.338
	c15.027,327.644,14.074,290.76,12.235,304.331L805.971,1778.979z M837.765,1688.372l-36.937,153.617
	C810.75,1754.224,802.314,1789.401,837.765,1688.372z M808.413,1759.528c-15.079-328.772-13.94-298.651-13.446-305.541
	c36.73-225.132,13.441-116.466,107.818-490.411C880.617,1252.725,900.515,1080.06,808.413,1759.528z M793.957,1444.338
	c-6.388-139.289-10.733-86.073,19.083-233.388C811.523,1301.452,814.209,1259.406,793.957,1444.338z M691.363,2076.802
	c93.938-763.334,78.866-654.329,95.786-737.932C794.139,1491.266,807.883,1362.621,691.363,2076.802z M774.642,1390.747
	l3.678-228.493c1.479,10.353,0.252-10.397,8.458,168.531L774.642,1390.747z M783.723,950.067l-3.12,164.417
	C778.603,968.471,777.52,1001.599,783.723,950.067z M779.181,1154.361l-34.397-240.775l11.592-78.432
	C781.62,1025.519,776.419,952.718,779.181,1154.361z M777.554,1156.886l-1.115-0.018c-5.012,311.371,11.703,117.403-93.147,969.405
	l-60.022,367.892c63.744-1322.114,35.946-1001.643,120.504-1573.741L777.554,1156.886z M676.977,1358.893l-14.472-243.755
	l0.755,0.091l59.183-344.121l20.353,142.472L676.977,1358.893z M912.978,1474.025l-181.07,977.548
	C811.226,1750.021,788.603,1828.477,912.978,1474.025z M848.731,1651.176c91.307-379.739,70.033-299.894,104.789-405.459
	c-2.542,26.295,2.833-5.866-38.211,215.72L848.731,1651.176z M956.318,1237.218l117.415-356.63
	c-111.66,473.417-77.219,349.425-154.192,568.787C958.711,1237.906,952.75,1274.093,956.318,1237.218z M1233.536,425.277
	c1.259,1.112,2.844,2.086,3.286,3.838c1.496,4.084,4.704,7.243,6.259,11.316c3.7,7.784,12.891,13.452,12.114,22.928
	c0.082,0.164,0.18,0.316,0.272,0.473c-0.062,0.132-139.418,297-139.481,297.132l-115.852,440.246
	c99.146-420.359,47.512-241.386,226.442-784.854C1230.717,421.509,1231.073,423.423,1233.536,425.277z M1221.836,404.573
	c-1.398,3.896,0.868,7.052,3.261,9.978l-139,422.19l110.854-469.999C1217.891,397.265,1209.782,390.669,1221.836,404.573z
	 M1192.147,361.295c1.094,1.126,2.22,2.251,3.253,3.449c-142.945,606.062-88.123,407.668-240.443,870.316l-0.403-0.039
	c-0.247,2.555,2.125-5.19-21.056,65.217c110.136-433.091,56.328-226.069,243.13-933.206
	C1181.912,359.895,1184.533,361.887,1192.147,361.295z M1168.058,373.221c1.894-1.018,3.984-1.9,5.742-3.188l-135.23,511.909
	l118.81-501.69C1161,378.026,1164.185,375.041,1168.058,373.221z M1132.676,392.824c1.754-0.671,3.421-1.507,4.768-2.933
	c2.431-2.647,6.514-2.312,8.974-4.881c2.072-2.029,4.6-1.571,8.64-3.49l-131.587,555.64l54.715-416.734L1132.676,392.824z
	 M1107.766,406.472c3.208-2.263,6.377-5.097,10.431-5.57c3.728-0.284,3.94-4.459,11.96-7.19l-51.02,119.476
	c10.835-82.526,7.686-61.431,14.207-97.063C1097.638,412.192,1102.926,409.635,1107.766,406.472z M1089.618,418.249
	c-4.366,33.252-0.46,9.824-20.207,117.716l-46.671,109.292l33.392-206.137C1067.155,431.936,1078.093,424.593,1089.618,418.249z
	 M1053.903,440.571c-43.897,271.013-11.416,119.895-165.865,741.086c22.128-288.622-7.32-130.647,143.069-726.526
	C1031.107,455.132,1050.151,443.002,1053.903,440.571z M997.455,479.698c4.8-3.198,9.682-6.28,13.777-10.375
	c6.446-3.178,11.732-7.998,17.376-12.333L906.503,940.811C922.323,734.456,903.387,836.396,997.455,479.698z M994.977,481.378
	L919.9,766.067c9.286-121.117,0.461-63.258,41.942-260.821C965.857,502.737,991.02,484.105,994.977,481.378z M954.197,511.164
	c1.542-1.775,3.39-3.154,5.321-4.429L928.43,654.799c5.001-65.229,0.516-33.96,21.251-140.998
	C951.016,512.654,952.421,511.623,954.197,511.164z M943.914,517.983c1.262-0.476,2.338-1.231,3.354-2.073l-15.045,77.665
	l-1.326-66.294C935.07,523.93,938.943,520.155,943.914,517.983z M916.365,540.137c3.133-2.085,6.972-7.204,12.593-11.358
	c2.749,137.477,4.957,99.896-53.644,378.997L916.365,540.137z M906.383,547.554c2.271-2.45,5.062-4.241,7.848-6.028
	c-51.854,464.377-35.057,350.802-75.087,530.625l60.059-517.92l-0.977-0.113C900.842,551.805,904.041,550.191,906.383,547.554z
	 M886.672,563.19c3.337-2.885,7.115-5.211,10.448-8.09c-70.759,610.195-59.286,523.428-72.511,588.771l51.437-570.922l-0.987-0.089
	C879.083,569.825,882.509,566.062,886.672,563.19z M874.011,573.606c-59.355,658.811-50.816,577.254-58.648,615.95l9.668-576.718
	C826.015,612.105,857.977,584.839,874.011,573.606z M788.385,1322.849c-7.946-173.247-6.948-147.467-7.262-170.388l0.728,0.014
	c5.174-272.675-3.807-155.228,41.01-527.585C811.758,1287.41,820.526,1164.048,788.385,1322.849z M805.096,630.252
	c3.602-1.456,4.773-5.737,8.109-7.626c4.627-2.542,6.569-5.392,8.836-7.392l-35.61,295.864l5.123-269.986
	C802.748,631.577,802.578,631.45,805.096,630.252z M783.978,648.406c1.412-1.585,2.899-3.078,5.186-3.187
	c0.029-0.595,0.164-1.126,0.374-1.612c-6.269,330.376-3.61,271.674-11.67,338.641l-20.444-154.175L783.978,648.406z
	 M757.429,669.633c2.49-0.64,4.202-2.647,5.963-4.369c0.47-0.498,13.913-10.297,18.233-14.395l-25.143,170.11l-17.881-134.842
	C750.857,674.088,752.975,675.38,757.429,669.633z M736.752,687.902c0.029-0.027,0.058-0.053,0.087-0.08l18.596,140.236
	l-11.63,78.682l-20.278-141.946L736.752,687.902z M734.388,690.038l-11.766,68.415l-7.369-51.584
	C723.743,700.499,722.217,700.819,734.388,690.038z M690.613,729.951c0.167-0.036,0.329-0.078,0.501-0.104
	c3.499-6.933,16.972-17.711,22.341-21.644l8.081,56.564l-56.865,330.642L690.613,729.951z M679.296,737.63
	c3.458-1.81,5.82-5.345,9.295-6.997l-26.637,375.249c-11.673-196.615-11.849-116.06,0.777-353.079
	C663.676,752.013,677.037,739.951,679.296,737.63z M660.675,754.434l-8.609,161.617l-1.958-151.539
	C654.848,759.969,651.307,761.547,660.675,754.434z M648.162,766.285l2.183,168.964l-19.174-95.314l10.15-67.072
	C645.623,768.426,643.723,770.179,648.162,766.285z M638.967,775.261l-8.932,59.027l-8.449-42.001
	C627.346,786.576,633.256,781.018,638.967,775.261z M619.913,793.951l9.26,46.032l-43.825,289.611l-22.27-280.697
	C601.656,812.149,592.031,821.939,619.913,793.951z M547.583,864.778c5.073-4.789,7.062-8.974,13.649-14.265
	c28.033,353.324,26.738,200.979,4.901,684.934c-39.419-161.453-35.995-146.761-36.196-149.803l4.815-508.026
	C539.021,872.327,542.701,869.417,547.583,864.778z M498.975,912.924c2.169-2.129,22.632-24.085,33.791-33.337l-4.676,493.31
	C476.585,1018.59,481.59,1120.344,498.975,912.924z M496.825,915.012c-17.172,204.879-22.106,104.417,28.769,454.395
	l-37.029-151.663l0.143,0.23c-2.261-8.76-0.372,19.599-14.558-281.985C474.15,935.99,496.824,915.013,496.825,915.012z
	 M466.616,943.137c1.253-2.481,3.448-4.076,5.632-5.686l11.218,238.481l-23.167-227.602
	C462.408,946.549,465.41,945.824,466.616,943.137z M458.5,950.081l25.357,249.096l-55.758-216.061
	C447.212,961.509,433.449,974.941,458.5,950.081z M414.974,995.438c1.191-2.313,3.513-3.69,6.091-3.818
	c1.727-2.317,3.571-4.536,5.463-6.716l57.059,221.101l-98.023-157.723l-1.981-35.674
	C388.793,1008.235,413.988,995.975,414.974,995.438z M381.705,1014.284l1.694,30.515l-5.294-8.519l-1.198-18.59
	C378.561,1016.627,380.201,1015.547,381.705,1014.284z M375.015,1018.919l0.89,13.821l-6.063-9.756
	C371.485,1021.358,373.055,1020.21,375.015,1018.919z M364.267,1026.839c1.386-0.806,2.784-1.604,4.063-2.56l7.844,12.621
	l5.096,79.108l-26.25-82.25C361.388,1030.186,360.833,1028.649,364.267,1026.839z M325.476,1059.834
	c1.618-1.804,11.769-12.819,15.036-13.068c2.256-5.203,7.063-6.239,12.828-11.794c33.429,104.744,27.834,79.56,30.633,123.02
	l-63.204-94.271C322.134,1062.228,323.839,1061.017,325.476,1059.834z M316.698,1064.705c0.63,0.807,1.269,1.643,1.909,2.48
	c0.233-0.653,0.549-1.245,0.902-1.808l64.715,96.525l30.336,470.93c-0.023-0.108-31.258-146.948-31.281-147.055
	c-43.249-121.438-39.832-89.159-76.753-413.102C309.477,1069.482,313.415,1067.496,316.698,1064.705z M304.75,1074.458
	l23.582,206.898l-53.563-188.362C287.339,1083.391,304.75,1074.458,304.75,1074.458z M273.087,1094.273
	c67.932,238.877,52.076,175.447,74.112,290.192l-75.063-210.767l2.114,2.215l-3.638-6.548l-8.602-67.91
	C267.018,1098.439,263.609,1101.507,273.087,1094.273z M260.167,1102.571l7.875,62.168l-18.687-33.637
	c-0.073-8.146-0.145-15.92-0.211-23.007C249.144,1108.095,260.166,1102.572,260.167,1102.571z M265.069,1163.44l-15.573-16.322
	c-0.035-4.013-0.069-7.99-0.104-11.897L265.069,1163.44z M247.182,1108.953c0.055,5.906,0.112,12.132,0.169,18.544l-8.616-15.509
	C244.365,1109.352,244.192,1110.107,247.182,1108.953z M236.949,1112.824l10.439,18.791c0.039,4.415,0.078,8.901,0.117,13.417
	l-24.794-25.986C229.793,1115.84,236.949,1112.824,236.949,1112.824z M194.038,1128.382c3.058,1.221,6.43,1.079,9.555,2.1
	l11.508,94.937l-29.378-99.887C188.534,1126.308,191.232,1127.572,194.038,1128.382z M183.526,1125.042l30.703,104.389
	l-63.265-109.718C166.869,1120.465,144.909,1118.956,183.526,1125.042z M121.731,1113.582c4.373-0.216,8.495,1.465,12.762,2.113
	l34.196,103.808l-48.459-106.03C120.721,1113.559,121.219,1113.606,121.731,1113.582z M111.526,1111.555
	c2.211-0.515,4.185,0.41,6.199,1.175l47.369,103.645l-60.566-106.39C107.07,1109.818,109.559,1109.787,111.526,1111.555z
	 M53.964,1100.901c0.086-0.13,0.176-0.253,0.252-0.407c0.856,0.394,1.594,1.171,2.578,1.22c6.652-1.161,13.344,0.63,19.759,2.243
	c2.952,0.522,6.209-0.521,8.925,1.073c2.204,1.446,4.93,0.866,7.39,1.348c4.477,2.407,4.234,3.962,9.47,3.739l69.093,121.367
	C150.394,1212.867,60.887,1132.161,53.964,1100.901z M136.638,1115.917c6.295,0.325,6.297,1.361,11.798,3.353
	c83.709,145.174,57.443,83.297,115.164,271.317C157.209,1202.269,185.112,1263.07,136.638,1115.917z M205.357,1128.684
	c2.75-4.774,11.798-7.874,15.339-8.899l26.833,28.123c0.403,47.367,0.75,96.858,0.499,98.835l0.018,0.003
	c-0.107,3.985,9.867,85.302,16.79,141.164C208.874,1205.615,221.498,1261.852,205.357,1128.684z M268.16,1398.707
	c-6.356-51.187-18.316-148.58-18.19-151.672l-0.015-0.001c0.288-3.62-0.05-52.022-0.434-97.038l19.282,20.209
	c101.8,285.839,66.216,150.83,153.986,607.871L268.16,1398.707z M353.986,1409.389c34.496,96.86,20.587,44.916,61.449,237.009
	l0.356,5.521l0.808-0.052c0.978,4.599,0.073-7.794,7.237,121.227L353.986,1409.389z M419.951,1667.627l150.514,707.585
	l-57.991-185.281C411.63,1717.33,428.507,1821.737,419.951,1667.627z M516.891,2210.631
	c69.556,222.234,52.124,157.765,83.426,304.922l0.692-0.147c0.045,3.406,0.046,6.812-0.397,10.201
	c-0.838,5.395,2.335,18.679,1.506,22.298c-0.777,3.858-0.394,7.843,0.581,11.651c-3.362,1.846-6.465,4.723-10.04,6.157
	L516.891,2210.631z M601.7,2605.016c-0.192-0.625-0.516-1.147-0.971-1.485l-6.467-30.307c4.166-3.151,4.354-5.599,7.128-8.285
	c0.148,1.299,0.128,2.657-0.108,4.015c0.63,0.197,1.899,0.58,2.529,0.777c0.01,3.277,0.61,6.504,1.023,9.771
	c-1.427,0.689-2.135,2.086-1.948,3.68c-0.561,3.68,2.273,6.534,3.129,9.948c-0.699,0.531-1.397,1.083-2.076,1.673
	c2.214,3.69,2.135,8.109,3.011,12.222C604.904,2606.867,603.207,2606.098,601.7,2605.016z M613.277,2609.319
	c1.338,0.738,1.417,2.273,1.752,3.67c-1.948-0.63-4.566-1.85-4.153-4.31c0.087-9.369-6.546-78.374-5.845-85.601
	c-0.105-5.866,1.797-11.934-0.167-17.626l0.487-12.19c11.679,37.316,10.458,33.062,10.697,34.999l0.248-0.031l0.559,1.785
	c-0.178,0.044-0.352,0.086-0.517,0.128c0.984,4.044,2.696,8.482,0.403,12.448c1.309,1.063,2.598,2.204,4.172,2.942
	C609.126,2558.123,618.479,2602.554,613.277,2609.319z M671.578,2740.992c-0.347,0.209-0.454,0.651-0.352,1.048
	c-10.104,11.606-6.459,22.322-16.61,21.782c-2.576-2.855-3.972-6.473-5.569-9.953c1.038-1.604,6.076-18.349,24.049-19.701
	C671.809,2736.382,671.032,2738.445,671.578,2740.992z M694.008,2659.337c-0.738,4.005-2.165,7.971-2.067,12.114
	c0.784,8.364-7.062,19.668-5.235,24.67c1.321,3.181-4.867,11.457-6.701,13.265c0.63,0.079,1.87,0.226,2.49,0.305
	c-2.299,9.542-2.31,7.701-3.085,13.935c-1.802,0.035-2.144,1.62-2.198,3.379c-0.943,1.726-1.928,3.421-2.922,5.119
	c-19.26,0.557-24.848,17.375-26.232,19.69c-0.914-1.787-1.958-3.487-3.341-4.966c-1.624-0.758-3.424-0.886-5.127-1.181
	c0.615-5.432,3.374-2.019,0.463-12.547c-1.299-2.263-4.015-2.873-6.199-3.867c-0.928-9.884,0.35-13.782,10.578-19.435
	c-0.433-1.407-0.836-2.804-1.201-4.143c-6.003,4.094-9.811,10.44-13.54,16.483c-3.09,1.456-4.221-2.067-5.087-4.261
	c-1.279-3.228-5.206-3.336-8.059-4.104c-0.915-6.062,3.031-11.444,6.583-15.951c2.342-3.021,2.49-7.075,4.635-10.175
	c0.777-1.456,1.998-2.726,2.342-4.32c-3.922-20.702-2.23-11.005-5.334-19.71c-1.074-5.478,3.772-22.108-2.037-27.632
	c0.138-3.178,4.408-4.271,6.219-6.603c-2.558-2.313-4.349-5.274-6.514-7.902c0.384-0.885,0.787-1.732,1.201-2.549
	c-0.375,0.058-0.753,0.105-1.13,0.156l1.629-9.811c2.472-5.236,9.284-50.539,9.597-51.523
	c76.626-336.616-99.069,399.569,115.351-492.186l-32.563,453.595c-0.161-0.023-0.308-0.045-0.424-0.063
	c-0.22,4.393,0.386,0.592-0.411,11.689l0.981,0.07c-2.48,9.348-3.661,19.031-5.068,28.576c1.387,3.749-2.696,6.259-2.234,9.929
	c0.187,3.985-1.624,7.744-1.181,11.769c0.354,2.991-1.643,5.442-2.775,8.059c0.059,2.381,1.191,4.773,0.384,7.174
	c-1.141,4.684-2.234,9.427-2.529,14.278c-0.069,3.178-2.322,5.806-2.529,8.975c-0.285,3.326-0.305,6.711-1.082,10.008
	C697.481,2639.489,696.911,2649.645,694.008,2659.337z M707.31,2689.77l0.912,0.079c-0.002,0.005-0.004,0.01-0.006,0.015
	c-3.191,0.421-6.727-0.206-9.724,1.071c2.111-3.677,4.004-7.37,2.935-11.867c1.722-0.728,3.356-1.634,4.91-2.657
	c-1.988-10.739,4.005-29.908,4.827-31.121L707.31,2689.77z M708.335,2617.407c1.565,2.893-0.246,5.521-1.584,8.03
	c0.876,7.695-0.643,3.995-7.37,29.561c-0.246,1.329-1.004,2.313-2.293,2.952c-0.955-6.016,4.705-30.432,6.839-35.947
	c0.463-1.86,3.789-23.478,5.255-26.018c2.854-4.527-0.216-10.126,2.303-14.741c2.844-0.6,2.116,3.651,2.677,5.461
	c0.64,0.305,1.929,0.915,2.568,1.22C711.898,2614.021,711.249,2615.651,708.335,2617.407z M735.514,2521.907
	c-2.785,2.923-2.411,7.242-2.805,10.982c-1.909,10.106-5.393,19.887-7.223,29.984c0.295,3.405-3.316,5.334-3.976,8.443
	c-0.285,3.061-1.407,6.091-0.59,9.211c-1.584-1.397-3.474-2.313-5.53-2.696c-0.659-1.506-1.368-2.972-2.125-4.399
	c1.988-2.716,2.224-6.17,2.991-9.319c0.256-1.102-0.768-1.968-1.132-2.834c1.791-3.277,2.116-7.007,2.145-10.657
	c-0.148-4.478,2.824-8.266,2.893-12.724c0.118-5.048,4.595-8.787,3.926-13.944c-0.149,0.194-0.287,0.399-0.433,0.595
	c7.2-63.678-15.819,67.781,193.553-1062.586l60.801-173.274L735.643,2523.704C735.6,2523.1,735.557,2522.499,735.514,2521.907z
	 M738.97,2528.25c-0.148-1.513-0.272-2.993-0.375-4.444c-0.382,0.304-0.766,0.627-1.149,0.938l245.104-1248.969
	c209.186-449.618,192.925-415.767,196.986-421.134c-122.88,581.506-36.582,243.01-435.62,1662.38L738.97,2528.25z M747.197,2516.618
	c-1.098,1.475-1.81,3.278-2.544,5.054c1.431-5.089,0.393-2.334,5.284-13.438L747.197,2516.618z M749.76,2525.373
	c0.009-0.744,0.032-1.485,0.081-2.216c-0.35-0.35-0.696-0.684-1.04-1.009c44.141-115.84-33.336,64.35,571.208-1308.227
	c166.152-274.683,140.017-231.565,164.334-271.41C1204.511,1576.333,1364.525,1230.081,749.76,2525.373z M1276.116,1419.021
	c253.798-574.851,188.84-444.742,311.897-646.378c0.286-0.06,0.573-0.116,0.868-0.158c-0.846,2.017-1.653,4.064-2.244,6.18
	c3.513-5.343,7.115-11.051,12.724-14.446c4.861-1.712,8.394-5.845,13.363-7.331c4.772-1.388,8.725-4.412,12.744-7.228
	L1276.116,1419.021z"/>
</svg>
