<svg data-v-423bf9ae="" xmlns="http://www.w3.org/2000/svg" viewBox="0 0 163.67381881497164 60" class="font"><!----><!----><!----><g data-v-423bf9ae="" id="88224aca-dbc6-42b6-8cef-fc08efa3b529" fill="black" transform="matrix(5.150214672088623,0,0,5.150214672088623,-2.678107976913452,-16.429182052612305)"><path d="M4.28 7.20L4.55 5.28Q4.56 5.21 4.57 5.13Q4.58 5.05 4.58 4.98L4.58 4.98Q4.58 4.62 4.39 4.45Q4.20 4.27 3.77 4.27L3.77 4.27L3.04 4.27L2.49 8.20L3.23 8.20Q3.70 8.20 3.96 7.97Q4.21 7.73 4.28 7.20L4.28 7.20ZM1.58 14.71L0.52 14.71L2.13 3.19L3.92 3.19Q5.64 3.19 5.64 4.73L5.64 4.73Q5.64 4.98 5.60 5.28L5.60 5.28L5.33 7.17Q5.18 8.26 4.63 8.75Q4.09 9.24 3.08 9.24L3.08 9.24L2.34 9.24L1.58 14.71ZM7.95 14.71L7.07 14.71Q7.06 14.67 7.06 14.53L7.06 14.53Q7.06 14.46 7.06 14.38Q7.07 14.29 7.08 14.20L7.08 14.20Q6.87 14.50 6.59 14.67Q6.31 14.84 5.95 14.84L5.95 14.84Q5.43 14.84 5.15 14.60Q4.87 14.35 4.87 13.82L4.87 13.82Q4.87 13.73 4.88 13.65Q4.89 13.57 4.90 13.47L4.90 13.47L5.08 12.19Q5.17 11.56 5.40 11.14Q5.63 10.71 5.97 10.42Q6.31 10.12 6.75 9.92Q7.18 9.72 7.69 9.52L7.69 9.52L7.95 7.63Q7.97 7.56 7.97 7.51Q7.97 7.46 7.97 7.41L7.97 7.41Q7.97 7.14 7.84 7.01Q7.71 6.87 7.42 6.87L7.42 6.87Q7.04 6.87 6.89 7.07Q6.75 7.27 6.69 7.63L6.69 7.63L6.43 9.45L5.57 9.45L5.84 7.62Q5.96 6.76 6.38 6.34Q6.79 5.91 7.59 5.91L7.59 5.91Q8.90 5.91 8.90 7.20L8.90 7.20Q8.90 7.31 8.90 7.41Q8.89 7.50 8.88 7.62L8.88 7.62L8.01 13.72Q7.98 13.94 7.96 14.15Q7.94 14.35 7.94 14.52L7.94 14.52Q7.94 14.67 7.95 14.71L7.95 14.71ZM7.14 13.36L7.57 10.29Q7.13 10.44 6.85 10.63Q6.57 10.81 6.40 11.04Q6.23 11.27 6.15 11.57Q6.06 11.87 6.01 12.26L6.01 12.26L5.88 13.19Q5.87 13.23 5.87 13.37L5.87 13.37Q5.87 13.90 6.44 13.90L6.44 13.90Q6.65 13.90 6.84 13.78Q7.03 13.65 7.14 13.36L7.14 13.36ZM9.87 14.71L8.90 14.71L10.11 6.05L10.92 6.05Q10.92 6.37 10.88 6.68L10.88 6.68Q11.12 6.30 11.40 6.13Q11.68 5.96 12.03 5.96L12.03 5.96Q12.19 5.96 12.32 6.02L12.32 6.02L12.17 7.10Q12.10 7.04 11.98 7.02Q11.86 7 11.75 7L11.75 7Q11.52 7 11.29 7.11Q11.06 7.21 10.88 7.52L10.88 7.52L9.87 14.71ZM14.71 14.71L13.83 14.71Q13.82 14.67 13.82 14.53L13.82 14.53Q13.82 14.46 13.82 14.38Q13.83 14.29 13.85 14.20L13.85 14.20Q13.64 14.50 13.36 14.67Q13.08 14.84 12.71 14.84L12.71 14.84Q12.19 14.84 11.91 14.60Q11.63 14.35 11.63 13.82L11.63 13.82Q11.63 13.73 11.64 13.65Q11.65 13.57 11.66 13.47L11.66 13.47L11.84 12.19Q11.93 11.56 12.16 11.14Q12.39 10.71 12.73 10.42Q13.08 10.12 13.51 9.92Q13.94 9.72 14.45 9.52L14.45 9.52L14.71 7.63Q14.73 7.56 14.73 7.51Q14.73 7.46 14.73 7.41L14.73 7.41Q14.73 7.14 14.60 7.01Q14.48 6.87 14.18 6.87L14.18 6.87Q13.80 6.87 13.66 7.07Q13.51 7.27 13.45 7.63L13.45 7.63L13.19 9.45L12.33 9.45L12.60 7.62Q12.73 6.76 13.14 6.34Q13.55 5.91 14.35 5.91L14.35 5.91Q15.67 5.91 15.67 7.20L15.67 7.20Q15.67 7.31 15.66 7.41Q15.65 7.50 15.64 7.62L15.64 7.62L14.77 13.72Q14.74 13.94 14.72 14.15Q14.70 14.35 14.70 14.52L14.70 14.52Q14.70 14.67 14.71 14.71L14.71 14.71ZM13.90 13.36L14.34 10.29Q13.89 10.44 13.61 10.63Q13.33 10.81 13.16 11.04Q12.99 11.27 12.91 11.57Q12.82 11.87 12.77 12.26L12.77 12.26L12.64 13.19Q12.63 13.23 12.63 13.37L12.63 13.37Q12.63 13.90 13.20 13.90L13.20 13.90Q13.41 13.90 13.60 13.78Q13.79 13.65 13.90 13.36L13.90 13.36ZM17.82 13.20L17.82 13.20Q17.88 12.80 17.91 12.57Q17.95 12.33 17.96 12.21Q17.98 12.10 17.98 12.05Q17.98 12.01 17.98 11.98L17.98 11.98Q17.98 11.79 17.91 11.61Q17.85 11.42 17.68 11.19L17.68 11.19Q17.43 10.84 17.11 10.53Q16.80 10.22 16.58 9.90L16.58 9.90Q16.42 9.67 16.35 9.47Q16.28 9.27 16.28 9.00L16.28 9.00Q16.28 8.95 16.29 8.87Q16.30 8.79 16.31 8.64Q16.32 8.50 16.36 8.25Q16.39 7.99 16.45 7.57L16.45 7.57Q16.58 6.68 17.02 6.29Q17.47 5.91 18.23 5.91L18.23 5.91Q18.98 5.91 19.28 6.18Q19.57 6.45 19.57 7.04L19.57 7.04Q19.57 7.10 19.56 7.18Q19.56 7.27 19.54 7.47Q19.52 7.67 19.47 8.03Q19.42 8.39 19.33 8.99L19.33 8.99L18.45 8.99Q18.54 8.43 18.58 8.12Q18.62 7.81 18.64 7.66Q18.66 7.50 18.66 7.46Q18.66 7.42 18.66 7.39L18.66 7.39Q18.66 7.10 18.51 6.99Q18.35 6.87 18.12 6.87L18.12 6.87Q17.50 6.87 17.39 7.57L17.39 7.57Q17.33 7.99 17.30 8.23Q17.26 8.47 17.25 8.60Q17.23 8.72 17.23 8.76Q17.23 8.81 17.23 8.83L17.23 8.83Q17.23 9.03 17.30 9.17Q17.36 9.31 17.51 9.51L17.51 9.51Q17.75 9.81 18.06 10.09Q18.37 10.37 18.59 10.68L18.59 10.68Q18.79 10.95 18.87 11.19Q18.96 11.44 18.96 11.75L18.96 11.75Q18.96 11.82 18.95 11.89Q18.94 11.97 18.92 12.13Q18.90 12.29 18.86 12.57Q18.83 12.84 18.77 13.27L18.77 13.27Q18.66 14.11 18.21 14.48Q17.75 14.84 16.94 14.84L16.94 14.84Q15.62 14.84 15.62 13.64L15.62 13.64Q15.62 13.59 15.63 13.52Q15.64 13.44 15.66 13.26Q15.68 13.08 15.73 12.74Q15.78 12.40 15.86 11.82L15.86 11.82L16.73 11.82Q16.65 12.36 16.60 12.67Q16.56 12.98 16.54 13.13Q16.52 13.29 16.52 13.34Q16.52 13.38 16.52 13.40L16.52 13.40Q16.52 13.71 16.68 13.80Q16.84 13.90 17.09 13.90L17.09 13.90Q17.71 13.90 17.82 13.20ZM21.59 14L21.48 14.77Q21.41 14.80 21.27 14.82Q21.13 14.84 21.01 14.84L21.01 14.84Q20.34 14.84 20.03 14.48Q19.71 14.13 19.71 13.48L19.71 13.48Q19.71 13.37 19.71 13.27Q19.71 13.16 19.74 13.05L19.74 13.05L20.61 6.90L20.20 6.90L20.31 6.05L20.72 6.05L21.11 3.30L22.08 3.30L21.69 6.05L22.67 6.05L22.55 6.90L21.57 6.90L20.71 13.05Q20.69 13.13 20.68 13.21Q20.68 13.29 20.68 13.36L20.68 13.36Q20.68 13.72 20.85 13.87Q21.03 14.01 21.41 14.01L21.41 14.01Q21.45 14.01 21.50 14.01Q21.55 14.01 21.59 14L21.59 14ZM25.19 14.71L24.30 14.71Q24.29 14.67 24.29 14.53L24.29 14.53Q24.29 14.46 24.30 14.38Q24.30 14.29 24.32 14.20L24.32 14.20Q24.11 14.50 23.83 14.67Q23.55 14.84 23.18 14.84L23.18 14.84Q22.67 14.84 22.39 14.60Q22.11 14.35 22.11 13.82L22.11 13.82Q22.11 13.73 22.11 13.65Q22.12 13.57 22.13 13.47L22.13 13.47L22.32 12.19Q22.40 11.56 22.63 11.14Q22.86 10.71 23.20 10.42Q23.55 10.12 23.98 9.92Q24.42 9.72 24.92 9.52L24.92 9.52L25.19 7.63Q25.20 7.56 25.20 7.51Q25.20 7.46 25.20 7.41L25.20 7.41Q25.20 7.14 25.07 7.01Q24.95 6.87 24.65 6.87L24.65 6.87Q24.28 6.87 24.13 7.07Q23.98 7.27 23.93 7.63L23.93 7.63L23.66 9.45L22.81 9.45L23.07 7.62Q23.20 6.76 23.61 6.34Q24.02 5.91 24.82 5.91L24.82 5.91Q26.14 5.91 26.14 7.20L26.14 7.20Q26.14 7.31 26.13 7.41Q26.12 7.50 26.11 7.62L26.11 7.62L25.24 13.72Q25.21 13.94 25.19 14.15Q25.17 14.35 25.17 14.52L25.17 14.52Q25.17 14.67 25.19 14.71L25.19 14.71ZM24.37 13.36L24.81 10.29Q24.36 10.44 24.08 10.63Q23.80 10.81 23.63 11.04Q23.46 11.27 23.38 11.57Q23.30 11.87 23.24 12.26L23.24 12.26L23.11 13.19Q23.10 13.23 23.10 13.37L23.10 13.37Q23.10 13.90 23.67 13.90L23.67 13.90Q23.88 13.90 24.07 13.78Q24.26 13.65 24.37 13.36L24.37 13.36ZM27.10 14.71L26.14 14.71L27.34 6.05L28.15 6.05Q28.15 6.37 28.11 6.68L28.11 6.68Q28.35 6.30 28.63 6.13Q28.91 5.96 29.26 5.96L29.26 5.96Q29.43 5.96 29.55 6.02L29.55 6.02L29.40 7.10Q29.33 7.04 29.21 7.02Q29.09 7 28.98 7L28.98 7Q28.76 7 28.52 7.11Q28.29 7.21 28.11 7.52L28.11 7.52L27.10 14.71ZM31.22 14L31.11 14.77Q31.04 14.80 30.90 14.82Q30.76 14.84 30.65 14.84L30.65 14.84Q29.97 14.84 29.66 14.48Q29.34 14.13 29.34 13.48L29.34 13.48Q29.34 13.37 29.34 13.27Q29.34 13.16 29.37 13.05L29.37 13.05L30.24 6.90L29.83 6.90L29.95 6.05L30.35 6.05L30.74 3.30L31.71 3.30L31.32 6.05L32.30 6.05L32.19 6.90L31.21 6.90L30.34 13.05Q30.32 13.13 30.32 13.21Q30.31 13.29 30.31 13.36L30.31 13.36Q30.31 13.72 30.48 13.87Q30.66 14.01 31.04 14.01L31.04 14.01Q31.08 14.01 31.13 14.01Q31.18 14.01 31.22 14L31.22 14Z"></path></g><!----><!----></svg>